[Header]
FileType HTR
DataType HTRS
FileVersion 1
NumSegments 64
NumFrames 4
DataFrameRate 24
EulerRotationOrder ZYX
CalibrationUnits mm
RotationUnits Degrees
GlobalAxisofGravity Y
BoneLengthAxis Y
ScaleFactor 1.0
[SegmentNames&Hierarchy]
Hips	GLOBAL
Spine	Hips
Spine1	Spine
Spine2	Spine1
Neck	Spine2
Head	Neck
LeftEye	Head
RightEye	Head
LeftShoulder	Spine2
LeftArm	LeftShoulder
LeftForeArm	LeftArm
LeftHand	LeftForeArm
LeftHandThumb1	LeftHand
LeftHandThumb2	LeftHandThumb1
LeftHandThumb3	LeftHandThumb2
LeftHandThumb4	LeftHandThumb3
LeftHandIndex1	LeftHand
LeftHandIndex2	LeftHandIndex1
LeftHandIndex3	LeftHandIndex2
LeftHandIndex4	LeftHandIndex3
LeftHandMiddle1	LeftHand
LeftHandMiddle2	LeftHandMiddle1
LeftHandMiddle3	LeftHandMiddle2
LeftHandMiddle4	LeftHandMiddle3
LeftHandRing1	LeftHand
LeftHandRing2	LeftHandRing1
LeftHandRing3	LeftHandRing2
LeftHandRing4	LeftHandRing3
LeftHandPinky1	LeftHand
LeftHandPinky2	LeftHandPinky1
LeftHandPinky3	LeftHandPinky2
LeftHandPinky4	LeftHandPinky3
RightShoulder	Spine2
RightArm	RightShoulder
RightForeArm	RightArm
RightHand	RightForeArm
RightHandPinky1	RightHand
RightHandPinky2	RightHandPinky1
RightHandPinky3	RightHandPinky2
RightHandPinky4	RightHandPinky3
RightHandRing1	RightHand
RightHandRing2	RightHandRing1
RightHandRing3	RightHandRing2
RightHandRing4	RightHandRing3
RightHandMiddle1	RightHand
RightHandMiddle2	RightHandMiddle1
RightHandMiddle3	RightHandMiddle2
RightHandMiddle4	RightHandMiddle3
RightHandIndex1	RightHand
RightHandIndex2	RightHandIndex1
RightHandIndex3	RightHandIndex2
RightHandIndex4	RightHandIndex3
RightHandThumb1	RightHand
RightHandThumb2	RightHandThumb1
RightHandThumb3	RightHandThumb2
RightHandThumb4	RightHandThumb3
LeftUpLeg	Hips
LeftLeg	LeftUpLeg
LeftFoot	LeftLeg
LeftToeBase	LeftFoot
RightUpLeg	Hips
RightLeg	RightUpLeg
RightFoot	RightLeg
RightToeBase	RightFoot
[BasePosition]
Hips	0	0	0	0	0	0	1
Spine	0	0	0	0	0	0	1
Spine1	0	0	0	0	0	0	1
Spine2	0	0	0	0	0	0	1
Neck	0	0	0	0	0	0	1
Head	0	0	0	0	0	0	1
LeftEye	0	0	0	0	0	0	1
RightEye	0	0	0	0	0	0	1
LeftShoulder	0	0	0	0	0	0	1
LeftArm	0	0	0	0	0	0	1
LeftForeArm	0	0	0	0	0	0	1
LeftHand	0	0	0	0	0	0	1
LeftHandThumb1	0	0	0	0	0	0	1
LeftHandThumb2	0	0	0	0	0	0	1
LeftHandThumb3	0	0	0	0	0	0	1
LeftHandThumb4	0	0	0	0	0	0	1
LeftHandIndex1	0	0	0	0	0	0	1
LeftHandIndex2	0	0	0	0	0	0	1
LeftHandIndex3	0	0	0	0	0	0	1
LeftHandIndex4	0	0	0	0	0	0	1
LeftHandMiddle1	0	0	0	0	0	0	1
LeftHandMiddle2	0	0	0	0	0	0	1
LeftHandMiddle3	0	0	0	0	0	0	1
LeftHandMiddle4	0	0	0	0	0	0	1
LeftHandRing1	0	0	0	0	0	0	1
LeftHandRing2	0	0	0	0	0	0	1
LeftHandRing3	0	0	0	0	0	0	1
LeftHandRing4	0	0	0	0	0	0	1
LeftHandPinky1	0	0	0	0	0	0	1
LeftHandPinky2	0	0	0	0	0	0	1
LeftHandPinky3	0	0	0	0	0	0	1
LeftHandPinky4	0	0	0	0	0	0	1
RightShoulder	0	0	0	0	0	0	1
RightArm	0	0	0	0	0	0	1
RightForeArm	0	0	0	0	0	0	1
RightHand	0	0	0	0	0	0	1
RightHandPinky1	0	0	0	0	0	0	1
RightHandPinky2	0	0	0	0	0	0	1
RightHandPinky3	0	0	0	0	0	0	1
RightHandPinky4	0	0	0	0	0	0	1
RightHandRing1	0	0	0	0	0	0	1
RightHandRing2	0	0	0	0	0	0	1
RightHandRing3	0	0	0	0	0	0	1
RightHandRing4	0	0	0	0	0	0	1
RightHandMiddle1	0	0	0	0	0	0	1
RightHandMiddle2	0	0	0	0	0	0	1
RightHandMiddle3	0	0	0	0	0	0	1
RightHandMiddle4	0	0	0	0	0	0	1
RightHandIndex1	0	0	0	0	0	0	1
RightHandIndex2	0	0	0	0	0	0	1
RightHandIndex3	0	0	0	0	0	0	1
RightHandIndex4	0	0	0	0	0	0	1
RightHandThumb1	0	0	0	0	0	0	1
RightHandThumb2	0	0	0	0	0	0	1
RightHandThumb3	0	0	0	0	0	0	1
RightHandThumb4	0	0	0	0	0	0	1
LeftUpLeg	0	0	0	0	0	0	1
LeftLeg	0	0	0	0	0	0	1
LeftFoot	0	0	0	0	0	0	1
LeftToeBase	0	0	0	0	0	0	1
RightUpLeg	0	0	0	0	0	0	1
RightLeg	0	0	0	0	0	0	1
RightFoot	0	0	0	0	0	0	1
RightToeBase	0	0	0	0	0	0	1
[Hips]
69	-12.85163116	915.9533691	-18.50860023	-8.538415909	-2.877701759	2.463692904	1.0
70	-19.7795639	917.1557007	-17.43778419	-7.345447063	-3.368738174	3.075190544	1.0
71	-29.47914886	931.9661865	-14.94039631	-5.725913525	-2.400636673	3.073904037	1.0
72	-39.69176865	949.3114624	-12.18972015	-4.028553486	-1.174542308	2.96145153	1.0
[Spine]
69	9.234152094e-05	101.8158798	1.31520927	9.002757072	-1.875926137	5.057863712	1.0
70	9.234152094e-05	101.8158798	1.31520927	10.48176193	-2.228718281	5.489702702	1.0
71	9.234152094e-05	101.8158798	1.31520927	9.380700111	-4.183770657	6.40667963	1.0
72	9.234152094e-05	101.8158798	1.31520927	7.788648129	-6.430492878	7.40918684	1.0
[Spine1]
69	2.519402869e-06	100.8345108	-10.00804329	1.916566849	-0.5167422295	0.8653681874	1.0
70	2.519402869e-06	100.8345108	-10.00804329	2.028436184	-0.6115356684	0.8432220221	1.0
71	2.519402869e-06	100.8345108	-10.00804329	1.827226639	-1.185398936	0.965675354	1.0
72	2.519402869e-06	100.8345108	-10.00804329	1.566280127	-1.846906185	1.11479485	1.0
[Spine2]
69	3.4574864e-06	91.00010681	-13.73417091	1.912119985	-0.4941827059	0.8460748792	1.0
70	3.4574864e-06	91.00010681	-13.73417091	2.02344799	-0.5865870714	0.8044478297	1.0
71	3.4574864e-06	91.00010681	-13.73417091	1.817928553	-1.162480593	0.9048596621	1.0
72	3.4574864e-06	91.00010681	-13.73417091	1.551969171	-1.82694912	1.031225443	1.0
[Neck]
69	6.334285445e-06	166.7166901	-25.16167831	5.884641647	0.9758940339	-1.135951042	1.0
70	6.334285445e-06	166.7166901	-25.16167831	4.745826244	1.199814439	-1.338992357	1.0
71	6.334285445e-06	166.7166901	-25.16167831	4.51604414	1.391495109	-1.549626589	1.0
72	6.334285445e-06	166.7166901	-25.16167831	4.463737011	1.5766325	-1.757756948	1.0
[Head]
69	-4.242318937e-06	96.17874908	16.85007477	2.796322107	1.42987144	-13.9659729	1.0
70	-4.242318937e-06	96.17874908	16.85007477	-1.705743313	2.182104111	-14.38092613	1.0
71	-4.242318937e-06	96.17874908	16.85007477	-2.668208122	3.958274603	-14.81334114	1.0
72	-4.242318937e-06	96.17874908	16.85007477	-2.943069696	5.933290005	-15.23069286	1.0
[LeftEye]
69	30.67560577	64.09507751	92.83554077	0	0	0	1.0
70	30.67560577	64.09507751	92.83554077	0	0	0	1.0
71	30.67560577	64.09507751	92.83554077	0	0	0	1.0
72	30.67560577	64.09507751	92.83554077	0	0	0	1.0
[RightEye]
69	-30.67550468	64.09500122	92.83547211	0	0	0	1.0
70	-30.67550468	64.09500122	92.83547211	0	0	0	1.0
71	-30.67550468	64.09500122	92.83547211	0	0	0	1.0
72	-30.67550468	64.09500122	92.83547211	0	0	0	1.0
[LeftShoulder]
69	45.70446396	109.4598465	-26.27988052	14.36499691	-22.71920967	-21.39970398	1.0
70	45.70446396	109.4598465	-26.27988052	13.04244232	-25.039505	-16.12559128	1.0
71	45.70446396	109.4598465	-26.27988052	11.51874161	-25.23999596	-13.59491539	1.0
72	45.70446396	109.4598465	-26.27988052	9.961983681	-25.0214386	-11.60248661	1.0
[LeftArm]
69	105.9236984	-5.245829105	-22.32120132	-14.91034698	-5.498739243	-24.32648277	1.0
70	105.9236984	-5.245829105	-22.32120132	-16.02980804	3.691412687	-39.14867401	1.0
71	105.9236984	-5.245829105	-22.32120132	-18.98833084	4.157129765	-42.19199753	1.0
72	105.9236984	-5.245829105	-22.32120132	-22.31945038	2.936010838	-42.9227066	1.0
[LeftForeArm]
69	278.4151917	-0.0008942864952	0.0003745891154	190.8136444	-73.7617569	-165.4594574	1.0
70	278.4151917	-0.0008942864952	0.0003745891154	188.392746	-76.74417114	-163.6350555	1.0
71	278.4151917	-0.0008942864952	0.0003745891154	178.9440155	-78.12922668	-154.5183868	1.0
72	278.4151917	-0.0008942864952	0.0003745891154	166.7211609	-78.46775818	-143.2024689	1.0
[LeftHand]
69	283.2883911	-0.0001744071778	0.0003780452244	-42.68177414	-5.638247967	-4.188065052	1.0
70	283.2883911	-0.0001744071778	0.0003780452244	-42.96152115	-4.341632843	-2.642246485	1.0
71	283.2883911	-0.0001744071778	0.0003780452244	-42.97154236	-3.65464282	0.3168341815	1.0
72	283.2883911	-0.0001744071778	0.0003780452244	-42.93227768	-3.095244169	3.539836884	1.0
[LeftHandThumb1]
69	24.66140366	-15.7504921	26.82413483	-16.54610062	-1.947194338	-8.89458847	1.0
70	24.66140366	-15.7504921	26.82413483	-16.60577202	-1.939842463	-8.959005356	1.0
71	24.66140366	-15.7504921	26.82413483	-16.58309555	-1.953290462	-8.938763618	1.0
72	24.66140366	-15.7504921	26.82413483	-16.54660606	-1.969866872	-8.904158592	1.0
[LeftHandThumb2]
69	32.29803848	-18.6469059	18.64681244	27.09043503	30.95655441	28.04275322	1.0
70	32.29803848	-18.6469059	18.64681244	27.13920212	30.9925499	28.07455444	1.0
71	32.29803848	-18.6469059	18.64681244	27.10084915	30.98960686	28.04239655	1.0
72	32.29803848	-18.6469059	18.64681244	27.04855919	30.97972679	28.00022507	1.0
[LeftHandThumb3]
69	26.52565002	-15.31492996	15.31471634	-9.615350723	20.81077385	4.864195824	1.0
70	26.52565002	-15.31492996	15.31471634	-9.645755768	20.85864067	4.831879139	1.0
71	26.52565002	-15.31492996	15.31471634	-9.650271416	20.81812286	4.824661255	1.0
72	26.52565002	-15.31492996	15.31471634	-9.649892807	20.76353455	4.822331905	1.0
[LeftHandThumb4]
69	19.54566956	-11.2850008	11.28492165	0	0	0	1.0
70	19.54566956	-11.2850008	11.28492165	0	0	0	1.0
71	19.54566956	-11.2850008	11.28492165	0	0	0	1.0
72	19.54566956	-11.2850008	11.28492165	0	0	0	1.0
[LeftHandIndex1]
69	91.09301758	-5.170834064	22.6007309	-6.402930737	6.312274456	-73.46961212	1.0
70	91.09301758	-5.170834064	22.6007309	-6.427274704	6.323561668	-73.72428131	1.0
71	91.09301758	-5.170834064	22.6007309	-6.422404766	6.309888363	-73.62994385	1.0
72	91.09301758	-5.170834064	22.6007309	-6.41247797	6.292359352	-73.47702789	1.0
[LeftHandIndex2]
69	36.76409531	-6.939138257e-05	0.0002924251603	-2.432302713	4.505608082	-51.91993713	1.0
70	36.76409531	-6.939138257e-05	0.0002924251603	-2.44970417	4.514306068	-52.0610466	1.0
71	36.76409531	-6.939138257e-05	0.0002924251603	-2.444713593	4.512331009	-52.02427292	1.0
72	36.76409531	-6.939138257e-05	0.0002924251603	-2.435905457	4.508513451	-51.95703125	1.0
[LeftHandIndex3]
69	28.83062553	0.000385119667	-0.0004276481632	-0.7287842035	4.569626331	-44.20766449	1.0
70	28.83062553	0.000385119667	-0.0004276481632	-0.7383949757	4.581615448	-44.34718704	1.0
71	28.83062553	0.000385119667	-0.0004276481632	-0.7364076376	4.579154491	-44.31818771	1.0
72	28.83062553	0.000385119667	-0.0004276481632	-0.7324116826	4.574189186	-44.26000595	1.0
[LeftHandIndex4]
69	23.92720032	0.0003702590766	0.0003355443478	0	0	0	1.0
70	23.92720032	0.0003702590766	0.0003355443478	0	0	0	1.0
71	23.92720032	0.0003702590766	0.0003355443478	0	0	0	1.0
72	23.92720032	0.0003702590766	0.0003355443478	0	0	0	1.0
[LeftHandMiddle1]
69	95.33401489	-0.000339240476	0.0001393702551	-9.502165794	8.226861	-72.52825165	1.0
70	95.33401489	-0.000339240476	0.0001393702551	-9.538409233	8.230817795	-72.77020264	1.0
71	95.33401489	-0.000339240476	0.0001393702551	-9.528237343	8.229367256	-72.68524933	1.0
72	95.33401489	-0.000339240476	0.0001393702551	-9.510155678	8.226999283	-72.54517365	1.0
[LeftHandMiddle2]
69	36.98236847	1.961359158e-05	0.0001791696704	-3.417956114	6.563200474	-77.13768005	1.0
70	36.98236847	1.961359158e-05	0.0001791696704	-3.433245659	6.570485115	-77.35903168	1.0
71	36.98236847	1.961359158e-05	0.0001791696704	-3.428962231	6.568135738	-77.29292297	1.0
72	36.98236847	1.961359158e-05	0.0001791696704	-3.42134285	6.564156532	-77.17791748	1.0
[LeftHandMiddle3]
69	29.50921631	-0.0003937608562	0.0001644795993	-2.024683475	4.393833637	-49.46592331	1.0
70	29.50921631	-0.0003937608562	0.0001644795993	-2.037191629	4.403903961	-49.621418	1.0
71	29.50921631	-0.0003937608562	0.0001644795993	-2.034389734	4.401757717	-49.5872612	1.0
72	29.50921631	-0.0003937608562	0.0001644795993	-2.028945208	4.397498608	-49.52035141	1.0
[LeftHandMiddle4]
69	28.3390255	-0.0003893481917	-9.504223272e-05	0	0	0	1.0
70	28.3390255	-0.0003893481917	-9.504223272e-05	0	0	0	1.0
71	28.3390255	-0.0003893481917	-9.504223272e-05	0	0	0	1.0
72	28.3390255	-0.0003893481917	-9.504223272e-05	0	0	0	1.0
[LeftHandRing1]
69	91.04527283	-0.4393950403	-18.65084648	-14.61457634	9.322317123	-80.62044525	1.0
70	91.04527283	-0.4393950403	-18.65084648	-14.65634441	9.311889648	-80.87246704	1.0
71	91.04527283	-0.4393950403	-18.65084648	-14.64533615	9.322760582	-80.79534149	1.0
72	91.04527283	-0.4393950403	-18.65084648	-14.62530518	9.336952209	-80.66231537	1.0
[LeftHandRing2]
69	31.54026794	-6.55346812e-05	0.000104257444	-3.336964369	7.516896725	-88.54697418	1.0
70	31.54026794	-6.55346812e-05	0.000104257444	-3.340214491	7.522624016	-88.79058075	1.0
71	31.54026794	-6.55346812e-05	0.000104257444	-3.34079361	7.51966095	-88.72548676	1.0
72	31.54026794	-6.55346812e-05	0.000104257444	-3.340863943	7.515280724	-88.60757446	1.0
[LeftHandRing3]
69	29.37672424	-0.0004545861739	-6.864757597e-05	0.9013762474	5.140655041	-44.2450676	1.0
70	29.37672424	-0.0004545861739	-6.864757597e-05	0.9078420997	5.152416706	-44.38012314	1.0
71	29.37672424	-0.0004545861739	-6.864757597e-05	0.9042850137	5.148983002	-44.35273743	1.0
72	29.37672424	-0.0004545861739	-6.864757597e-05	0.8990828395	5.14296484	-44.29719925	1.0
[LeftHandRing4]
69	26.47452545	-0.0004980441299	7.070515267e-07	0	0	0	1.0
70	26.47452545	-0.0004980441299	7.070515267e-07	0	0	0	1.0
71	26.47452545	-0.0004980441299	7.070515267e-07	0	0	0	1.0
72	26.47452545	-0.0004980441299	7.070515267e-07	0	0	0	1.0
[LeftHandPinky1]
69	80.77777863	-4.886682034	-38.06066895	-21.61392021	9.33094883	-89.48152161	1.0
70	80.77777863	-4.886682034	-38.06066895	-21.65328407	9.298082352	-89.73164368	1.0
71	80.77777863	-4.886682034	-38.06066895	-21.64796066	9.326692581	-89.67324829	1.0
72	80.77777863	-4.886682034	-38.06066895	-21.63480568	9.365054131	-89.56176758	1.0
[LeftHandPinky2]
69	36.00034332	-2.252215199e-05	-0.0002623879409	-0.1204270795	9.41987896	-76.62031555	1.0
70	36.00034332	-2.252215199e-05	-0.0002623879409	-0.1293253899	9.437975883	-76.83646393	1.0
71	36.00034332	-2.252215199e-05	-0.0002623879409	-0.1274548024	9.432387352	-76.77531433	1.0
72	36.00034332	-2.252215199e-05	-0.0002623879409	-0.1237301305	9.422784805	-76.66686249	1.0
[LeftHandPinky3]
69	21.14211655	0.0001953828178	-2.864415183e-05	-2.011225224	4.570819855	-48.10328674	1.0
70	21.14211655	0.0001953828178	-2.864415183e-05	-2.007751703	4.576197624	-48.23760223	1.0
71	21.14211655	0.0001953828178	-2.864415183e-05	-2.01069665	4.574209213	-48.21042633	1.0
72	21.14211655	0.0001953828178	-2.864415183e-05	-2.014662266	4.570988178	-48.15526581	1.0
[LeftHandPinky4]
69	19.7568264	0.0001240565616	-0.0004430140834	0	0	0	1.0
70	19.7568264	0.0001240565616	-0.0004430140834	0	0	0	1.0
71	19.7568264	0.0001240565616	-0.0004430140834	0	0	0	1.0
72	19.7568264	0.0001240565616	-0.0004430140834	0	0	0	1.0
[RightShoulder]
69	-45.69969559	109.4617615	-26.28017426	8.994835854	1.440653563	17.84350395	1.0
70	-45.69969559	109.4617615	-26.28017426	11.09940624	-0.873182714	12.08810902	1.0
71	-45.69969559	109.4617615	-26.28017426	12.11661243	-2.383598089	9.979291916	1.0
72	-45.69969559	109.4617615	-26.28017426	12.91511822	-3.737239361	8.566895485	1.0
[RightArm]
69	-105.9284363	-5.247983932	-22.32098579	9.219544411	31.93716431	27.58419991	1.0
70	-105.9284363	-5.247983932	-22.32098579	11.24749184	22.48752785	36.41530991	1.0
71	-105.9284363	-5.247983932	-22.32098579	13.73810673	13.88108158	40.69848251	1.0
72	-105.9284363	-5.247983932	-22.32098579	16.27126884	5.528911591	44.05754089	1.0
[RightForeArm]
69	-278.4151917	-0.0003307921579	0.0001167631053	-2.281742334	75.28757477	-28.81640244	1.0
70	-278.4151917	-0.0003307921579	0.0001167631053	-6.294587612	72.74842072	-32.93569565	1.0
71	-278.4151917	-0.0003307921579	0.0001167631053	-18.878582	73.92086792	-44.08833313	1.0
72	-278.4151917	-0.0003307921579	0.0001167631053	-50.25415802	74.377388	-77.05690002	1.0
[RightHand]
69	-283.2883911	-1.581417109e-06	0.000558160129	-42.742733	12.4821806	1.977227688	1.0
70	-283.2883911	-1.581417109e-06	0.000558160129	-42.75958633	11.48077679	2.789171219	1.0
71	-283.2883911	-1.581417109e-06	0.000558160129	-42.9366188	9.67445755	5.218988895	1.0
72	-283.2883911	-1.581417109e-06	0.000558160129	-43.14535522	7.720679283	7.901889801	1.0
[RightHandPinky1]
69	-80.76674652	-4.88459301	-38.06010437	-20.34809113	-8.16007328	89.04364014	1.0
70	-80.76674652	-4.88459301	-38.06010437	-20.2695713	-8.368948936	88.33076477	1.0
71	-80.76674652	-4.88459301	-38.06010437	-20.312006	-8.121145248	88.87850952	1.0
72	-80.76674652	-4.88459301	-38.06010437	-20.37714767	-7.787809849	89.66262817	1.0
[RightHandPinky2]
69	-36.00034332	0.0003967665543	0.0005081442068	0.7900901437	-8.275642395	76.92202759	1.0
70	-36.00034332	0.0003967665543	0.0005081442068	0.8008605838	-8.218733788	76.24459839	1.0
71	-36.00034332	0.0003967665543	0.0005081442068	0.7927398086	-8.268145561	76.80861664	1.0
72	-36.00034332	0.0003967665543	0.0005081442068	0.7810729742	-8.337470055	77.60536194	1.0
[RightHandPinky3]
69	-21.14211655	0.0001513792522	0.0001479376951	-1.61393249	-3.683418036	48.35356522	1.0
70	-21.14211655	0.0001513792522	0.0001479376951	-1.641740918	-3.668355465	47.98971558	1.0
71	-21.14211655	0.0001513792522	0.0001479376951	-1.613483071	-3.683000326	48.24804688	1.0
72	-21.14211655	0.0001513792522	0.0001479376951	-1.574726343	-3.70320797	48.62308884	1.0
[RightHandPinky4]
69	-19.7568264	-0.000185219571	-9.839841368e-06	0	0	0	1.0
70	-19.7568264	-0.000185219571	-9.839841368e-06	0	0	0	1.0
71	-19.7568264	-0.000185219571	-9.839841368e-06	0	0	0	1.0
72	-19.7568264	-0.000185219571	-9.839841368e-06	0	0	0	1.0
[RightHandRing1]
69	-91.03588104	-0.4391434789	-18.65072441	-13.52518749	-8.142478943	80.16486359	1.0
70	-91.03588104	-0.4391434789	-18.65072441	-13.41607285	-8.21809864	79.35679626	1.0
71	-91.03588104	-0.4391434789	-18.65072441	-13.50426292	-8.120497704	80.06741333	1.0
72	-91.03588104	-0.4391434789	-18.65072441	-13.62943649	-7.990444183	81.06265259	1.0
[RightHandRing2]
69	-31.54026794	0.0002399729856	0.0004885121016	-2.173821449	-6.324192047	88.85002899	1.0
70	-31.54026794	0.0002399729856	0.0004885121016	-2.187443972	-6.29832983	88.11129761	1.0
71	-31.54026794	0.0002399729856	0.0004885121016	-2.172250748	-6.325695038	88.71560669	1.0
72	-31.54026794	0.0002399729856	0.0004885121016	-2.151661396	-6.363008976	89.57171631	1.0
[RightHandRing3]
69	-29.37672424	-0.0004160065437	-0.0003966063377	1.243947983	-4.317293167	44.50948334	1.0
70	-29.37672424	-0.0004160065437	-0.0003966063377	1.208377242	-4.284442425	44.14311218	1.0
71	-29.37672424	-0.0004160065437	-0.0003966063377	1.242312789	-4.312376499	44.40387726	1.0
72	-29.37672424	-0.0004160065437	-0.0003966063377	1.289268374	-4.35170269	44.78227997	1.0
[RightHandRing4]
69	-26.47452545	0.0002460821415	-2.294923434e-05	0	0	0	1.0
70	-26.47452545	0.0002460821415	-2.294923434e-05	0	0	0	1.0
71	-26.47452545	0.0002460821415	-2.294923434e-05	0	0	0	1.0
72	-26.47452545	0.0002460821415	-2.294923434e-05	0	0	0	1.0
[RightHandMiddle1]
69	-95.32502747	-0.0001631230261	0.0001679184206	-8.572807312	-7.061877728	72.05501556	1.0
70	-95.32502747	-0.0001631230261	0.0001679184206	-8.478235245	-7.05096817	71.2206192	1.0
71	-95.32502747	-0.0001631230261	0.0001679184206	-8.557881355	-7.05878973	71.99518585	1.0
72	-95.32502747	-0.0001631230261	0.0001679184206	-8.670179367	-7.070092678	73.07125854	1.0
[RightHandMiddle2]
69	-36.98236847	0.000150669599	-0.0002254552383	-2.503431082	-5.404837132	77.42106628	1.0
70	-36.98236847	0.000150669599	-0.0002254552383	-2.470116615	-5.383159161	76.70654297	1.0
71	-36.98236847	0.000150669599	-0.0002254552383	-2.498226166	-5.401758671	77.31376648	1.0
72	-36.98236847	0.000150669599	-0.0002254552383	-2.537854671	-5.427888393	78.16874695	1.0
[RightHandMiddle3]
69	-29.50921631	-3.113244929e-06	-3.03402544e-06	-1.62159729	-3.498714924	49.73458481	1.0
70	-29.50921631	-3.113244929e-06	-3.03402544e-06	-1.593173862	-3.476727962	49.29873276	1.0
71	-29.50921631	-3.113244929e-06	-3.03402544e-06	-1.614464045	-3.492608547	49.62102509	1.0
72	-29.50921631	-3.113244929e-06	-3.03402544e-06	-1.645081043	-3.515587568	50.08551788	1.0
[RightHandMiddle4]
69	-28.3390255	8.05324089e-05	0.0005378770875	0	0	0	1.0
70	-28.3390255	8.05324089e-05	0.0005378770875	0	0	0	1.0
71	-28.3390255	8.05324089e-05	0.0005378770875	0	0	0	1.0
72	-28.3390255	8.05324089e-05	0.0005378770875	0	0	0	1.0
[RightHandIndex1]
69	-91.08280945	-5.167889595	22.60116386	-5.443949699	-5.125543594	72.9833374	1.0
70	-91.08280945	-5.167889595	22.60116386	-5.39934063	-5.036984921	72.0713501	1.0
71	-91.08280945	-5.167889595	22.60116386	-5.430668831	-5.153233051	72.9396286	1.0
72	-91.08280945	-5.167889595	22.60116386	-5.47622633	-5.307778835	74.14150238	1.0
[RightHandIndex2]
69	-36.76409531	0.0001922715601	0.0003235567128	-1.993923426	-3.574565649	52.1516571	1.0
70	-36.76409531	0.0001922715601	0.0003235567128	-1.94543469	-3.555410147	51.72218323	1.0
71	-36.76409531	0.0001922715601	0.0003235567128	-1.985628247	-3.569297791	52.0638237	1.0
72	-36.76409531	0.0001922715601	0.0003235567128	-2.042450905	-3.589378357	52.55006027	1.0
[RightHandIndex3]
69	-28.83062553	-0.0004960121587	0.0004044897505	-0.4030724466	-3.750280857	44.46815872	1.0
70	-28.83062553	-0.0004960121587	0.0004044897505	-0.3823468983	-3.723294497	44.08566666	1.0
71	-28.83062553	-0.0004960121587	0.0004044897505	-0.3972267509	-3.74250412	44.36014938	1.0
72	-28.83062553	-0.0004960121587	0.0004044897505	-0.4187877476	-3.770376444	44.75785828	1.0
[RightHandIndex4]
69	-23.92720032	0.0002681470069	0.0002802013478	0	0	0	1.0
70	-23.92720032	0.0002681470069	0.0002802013478	0	0	0	1.0
71	-23.92720032	0.0002681470069	0.0002802013478	0	0	0	1.0
72	-23.92720032	0.0002681470069	0.0002802013478	0	0	0	1.0
[RightHandThumb1]
69	-24.64805984	-15.72714233	26.82626534	-17.65826797	4.445920467	8.909497261	1.0
70	-24.64805984	-15.72714233	26.82626534	-17.43560028	4.522266865	8.699326515	1.0
71	-24.64805984	-15.72714233	26.82626534	-17.64004707	4.41931057	8.87972641	1.0
72	-24.64805984	-15.72714233	26.82626534	-17.92454338	4.282809734	9.133349419	1.0
[RightHandThumb2]
69	-32.29771805	-18.6470871	18.64718437	28.56727982	-32.60019302	-29.52661133	1.0
70	-32.29771805	-18.6470871	18.64718437	28.26781082	-32.52884674	-29.28979492	1.0
71	-32.29771805	-18.6470871	18.64718437	28.60698128	-32.55919647	-29.56976318	1.0
72	-32.29771805	-18.6470871	18.64718437	29.06578445	-32.60861588	-29.94650078	1.0
[RightHandThumb3]
69	-26.52605057	-15.31449318	15.31445599	-6.257712841	-26.19258881	-5.51369524	1.0
70	-26.52605057	-15.31449318	15.31445599	-6.234654427	-25.89019775	-5.530110359	1.0
71	-26.52605057	-15.31449318	15.31445599	-6.199355602	-26.23802567	-5.58266449	1.0
72	-26.52605057	-15.31449318	15.31445599	-6.161822796	-26.70762634	-5.641937256	1.0
[RightHandThumb4]
69	-19.54580498	-11.28461742	11.28507042	0	0	0	1.0
70	-19.54580498	-11.28461742	11.28507042	0	0	0	1.0
71	-19.54580498	-11.28461742	11.28507042	0	0	0	1.0
72	-19.54580498	-11.28461742	11.28507042	0	0	0	1.0
[LeftUpLeg]
69	82.07781982	-67.51714325	-15.99555588	-17.0653019	16.69319916	12.16900539	1.0
70	82.07781982	-67.51714325	-15.99555588	-17.85715675	17.02254868	11.59339905	1.0
71	82.07781982	-67.51714325	-15.99555588	-17.67816734	18.23952293	11.15499115	1.0
72	82.07781982	-67.51714325	-15.99555588	-17.31663513	19.64899063	10.72975731	1.0
[LeftLeg]
69	-4.110157988e-06	-443.7047119	2.846426487	55.52871704	5.349555492	-4.051376343	1.0
70	-4.110157988e-06	-443.7047119	2.846426487	54.82732773	5.237265587	-4.104961872	1.0
71	-4.110157988e-06	-443.7047119	2.846426487	50.59702301	3.536699533	-4.793525219	1.0
72	-4.110157988e-06	-443.7047119	2.846426487	45.7100296	1.518866301	-5.589715958	1.0
[LeftFoot]
69	4.716393505e-06	-444.278717	-29.82190704	-25.68885803	-1.236330152	-4.43698597	1.0
70	4.716393505e-06	-444.278717	-29.82190704	-25.31485367	-1.16815567	-4.496832371	1.0
71	4.716393505e-06	-444.278717	-29.82190704	-22.54402542	-1.063903451	-4.885557652	1.0
72	4.716393505e-06	-444.278717	-29.82190704	-19.32382202	-0.9539408088	-5.344763279	1.0
[LeftToeBase]
69	-2.960988058e-05	-87.28669739	107.1055984	-3.290734529	-1.572481807e-07	-5.895894446e-06	1.0
70	-2.960988058e-05	-87.28669739	107.1055984	-3.578393221	-2.058606242e-06	1.883648451e-06	1.0
71	-2.960988058e-05	-87.28669739	107.1055984	-3.531971216	-1.241081463e-06	2.921896566e-06	1.0
72	-2.960988058e-05	-87.28669739	107.1055984	-3.417369127	1.527092053e-07	2.676326631e-06	1.0
[RightUpLeg]
69	-82.07795715	-67.51662445	-15.99559402	-27.70988083	-19.55518532	-6.120897293	1.0
70	-82.07795715	-67.51662445	-15.99559402	-29.19145393	-19.28515434	-5.694636822	1.0
71	-82.07795715	-67.51662445	-15.99559402	-28.48906517	-19.2718544	-4.620988369	1.0
72	-82.07795715	-67.51662445	-15.99559402	-27.37886429	-19.30326271	-3.428787947	1.0
[RightLeg]
69	8.435572454e-07	-443.7053833	2.861563921	55.30418396	3.924400806	-11.62829494	1.0
70	8.435572454e-07	-443.7053833	2.861563921	55.37782288	3.869826794	-11.7167244	1.0
71	8.435572454e-07	-443.7053833	2.861563921	51.58893204	2.849417686	-12.07984161	1.0
72	8.435572454e-07	-443.7053833	2.861563921	47.07265472	1.646686673	-12.49206638	1.0
[RightFoot]
69	9.644581951e-06	-444.2773132	-29.83789063	-18.007864	-2.285773516	13.6139307	1.0
70	9.644581951e-06	-444.2773132	-29.83789063	-18.17817879	-2.481395245	13.21175194	1.0
71	9.644581951e-06	-444.2773132	-29.83789063	-16.87981224	-3.315214157	12.74080849	1.0
72	9.644581951e-06	-444.2773132	-29.83789063	-15.30060005	-4.25900507	12.25096321	1.0
[RightToeBase]
69	-2.360438157e-05	-87.28668976	107.1056061	-2.956731078e-05	5.70117345e-06	-7.993188046e-05	1.0
70	-2.360438157e-05	-87.28668976	107.1056061	-6.605491217e-05	6.631416454e-06	-8.929637261e-05	1.0
71	-2.360438157e-05	-87.28668976	107.1056061	-0.005440557376	9.687855709e-06	-0.0001015104135	1.0
72	-2.360438157e-05	-87.28668976	107.1056061	-0.01081141364	1.306396734e-05	-0.0001130259407	1.0
[EndOfFile]
